<svg width="131" height="26" viewBox="0 0 131 26" fill="none" xmlns="http://www.w3.org/2000/svg">
<path d="M19.9773 25.277C18.5246 25.277 17.2751 24.9692 16.2287 24.3537C15.1884 23.732 14.3883 22.8703 13.8281 21.7685C13.2741 20.6667 12.9972 19.3987 12.9972 17.9645C12.9972 16.5118 13.2772 15.2377 13.8374 14.142C14.4036 13.0402 15.2069 12.1816 16.2472 11.5661C17.2874 10.9444 18.5246 10.6335 19.9588 10.6335C21.196 10.6335 22.2794 10.8582 23.2088 11.3075C24.1383 11.7569 24.8738 12.3878 25.4155 13.2003C25.9572 14.0128 26.2557 14.9669 26.3111 16.0625H22.5994C22.4948 15.3546 22.2178 14.7853 21.7685 14.3544C21.3253 13.9174 20.7436 13.6989 20.0234 13.6989C19.4141 13.6989 18.8816 13.8651 18.4261 14.1974C17.9768 14.5237 17.6259 15.0007 17.3736 15.6286C17.1212 16.2564 16.995 17.0166 16.995 17.9091C16.995 18.8139 17.1181 19.5833 17.3643 20.2173C17.6167 20.8513 17.9706 21.3345 18.4261 21.6669C18.8816 21.9993 19.4141 22.1655 20.0234 22.1655C20.4728 22.1655 20.8759 22.0732 21.233 21.8885C21.5961 21.7038 21.8947 21.4361 22.1286 21.0852C22.3686 20.7282 22.5256 20.3004 22.5994 19.8018H26.3111C26.2495 20.8852 25.9541 21.8393 25.4247 22.6641C24.9015 23.4827 24.1783 24.1229 23.255 24.5845C22.3317 25.0462 21.2391 25.277 19.9773 25.277Z" fill="white"/>
<path d="M34.5826 16.8011V25H30.6494V6.09091H34.4718V13.3203H34.638C34.9581 12.4832 35.4751 11.8277 36.1891 11.3537C36.9032 10.8736 37.7988 10.6335 38.8759 10.6335C39.8608 10.6335 40.7194 10.849 41.4519 11.2798C42.1906 11.7045 42.763 12.317 43.1693 13.1172C43.5817 13.9112 43.7848 14.8622 43.7786 15.9702V25H39.8454V16.6719C39.8515 15.7978 39.63 15.1177 39.1806 14.6314C38.7374 14.1451 38.1157 13.902 37.3156 13.902C36.78 13.902 36.3061 14.0159 35.8937 14.2436C35.4874 14.4714 35.1674 14.8037 34.9335 15.2408C34.7057 15.6716 34.5888 16.1918 34.5826 16.8011Z" fill="white"/>
<path d="M48.694 25V10.8182H52.6272V25H48.694ZM50.6698 8.99006C50.0851 8.99006 49.5834 8.79616 49.1649 8.40838C48.7525 8.01444 48.5462 7.54356 48.5462 6.99574C48.5462 6.45407 48.7525 5.98935 49.1649 5.60156C49.5834 5.20762 50.0851 5.01065 50.6698 5.01065C51.2546 5.01065 51.7532 5.20762 52.1656 5.60156C52.5841 5.98935 52.7934 6.45407 52.7934 6.99574C52.7934 7.54356 52.5841 8.01444 52.1656 8.40838C51.7532 8.79616 51.2546 8.99006 50.6698 8.99006Z" fill="white"/>
<path d="M69.3977 14.8622L65.7968 15.0838C65.7353 14.776 65.6029 14.4991 65.3998 14.2528C65.1967 14.0005 64.9289 13.8004 64.5965 13.6527C64.2703 13.4988 63.8794 13.4219 63.424 13.4219C62.8146 13.4219 62.3006 13.5511 61.8821 13.8097C61.4635 14.062 61.2542 14.4006 61.2542 14.8253C61.2542 15.1638 61.3896 15.45 61.6605 15.6839C61.9313 15.9178 62.396 16.1056 63.0546 16.2472L65.6214 16.7642C67.0002 17.0473 68.0281 17.5028 68.7052 18.1307C69.3823 18.7585 69.7208 19.5833 69.7208 20.6051C69.7208 21.5346 69.4469 22.3501 68.8991 23.0518C68.3574 23.7536 67.6126 24.3014 66.6647 24.6953C65.723 25.0831 64.6366 25.277 63.4055 25.277C61.5281 25.277 60.0324 24.8861 58.9183 24.1044C57.8103 23.3165 57.1609 22.2455 56.9701 20.8913L60.8387 20.6882C60.9557 21.2607 61.2388 21.6977 61.6882 21.9993C62.1375 22.2947 62.713 22.4425 63.4147 22.4425C64.1041 22.4425 64.6581 22.3101 65.0767 22.0455C65.5014 21.7746 65.7168 21.4268 65.723 21.0021C65.7168 20.6451 65.566 20.3527 65.2705 20.125C64.9751 19.8911 64.5196 19.7126 63.9041 19.5895L61.4481 19.1001C60.0632 18.8232 59.0321 18.343 58.3551 17.6598C57.6841 16.9766 57.3487 16.1056 57.3487 15.0469C57.3487 14.1359 57.5949 13.3511 58.0873 12.6925C58.5859 12.0339 59.2845 11.526 60.1832 11.169C61.088 10.812 62.1467 10.6335 63.3593 10.6335C65.1505 10.6335 66.5601 11.0121 67.588 11.7692C68.6221 12.5263 69.2253 13.5573 69.3977 14.8622Z" fill="white"/>
<path d="M81.8551 25V10.8182H85.7884V25H81.8551ZM83.831 8.99006C83.2462 8.99006 82.7446 8.79616 82.326 8.40838C81.9136 8.01444 81.7074 7.54356 81.7074 6.99574C81.7074 6.45407 81.9136 5.98935 82.326 5.60156C82.7446 5.20762 83.2462 5.01065 83.831 5.01065C84.4158 5.01065 84.9143 5.20762 85.3267 5.60156C85.7453 5.98935 85.9546 6.45407 85.9546 6.99574C85.9546 7.54356 85.7453 8.01444 85.3267 8.40838C84.9143 8.79616 84.4158 8.99006 83.831 8.99006Z" fill="white"/>
<path d="M94.6924 16.8011V25H90.7591V10.8182H94.5077V13.3203H94.6739C94.9878 12.4955 95.5141 11.843 96.2527 11.3629C96.9914 10.8767 97.887 10.6335 98.9395 10.6335C99.9244 10.6335 100.783 10.849 101.516 11.2798C102.248 11.7107 102.817 12.3262 103.224 13.1264C103.63 13.9205 103.833 14.8684 103.833 15.9702V25H99.8998V16.6719C99.9059 15.804 99.6843 15.1269 99.235 14.6406C98.7856 14.1482 98.167 13.902 97.3792 13.902C96.8498 13.902 96.382 14.0159 95.9758 14.2436C95.5757 14.4714 95.2617 14.8037 95.034 15.2408C94.8124 15.6716 94.6985 16.1918 94.6924 16.8011Z" fill="white"/>
<path d="M115.161 25.277C113.708 25.277 112.458 24.9692 111.412 24.3537C110.372 23.732 109.572 22.8703 109.011 21.7685C108.458 20.6667 108.181 19.3987 108.181 17.9645C108.181 16.5118 108.461 15.2377 109.021 14.142C109.587 13.0402 110.39 12.1816 111.431 11.5661C112.471 10.9444 113.708 10.6335 115.142 10.6335C116.379 10.6335 117.463 10.8582 118.392 11.3075C119.322 11.7569 120.057 12.3878 120.599 13.2003C121.141 14.0128 121.439 14.9669 121.494 16.0625H117.783C117.678 15.3546 117.401 14.7853 116.952 14.3544C116.509 13.9174 115.927 13.6989 115.207 13.6989C114.597 13.6989 114.065 13.8651 113.609 14.1974C113.16 14.5237 112.809 15.0007 112.557 15.6286C112.305 16.2564 112.178 17.0166 112.178 17.9091C112.178 18.8139 112.301 19.5833 112.548 20.2173C112.8 20.8513 113.154 21.3345 113.609 21.6669C114.065 21.9993 114.597 22.1655 115.207 22.1655C115.656 22.1655 116.059 22.0732 116.416 21.8885C116.779 21.7038 117.078 21.4361 117.312 21.0852C117.552 20.7282 117.709 20.3004 117.783 19.8018H121.494C121.433 20.8852 121.137 21.8393 120.608 22.6641C120.085 23.4827 119.362 24.1229 118.438 24.5845C117.515 25.0462 116.422 25.277 115.161 25.277Z" fill="white"/>
<path d="M128.132 25.2401C127.522 25.2401 126.999 25.0246 126.562 24.5938C126.131 24.1567 125.916 23.6335 125.916 23.0241C125.916 22.4209 126.131 21.9039 126.562 21.473C126.999 21.0421 127.522 20.8267 128.132 20.8267C128.723 20.8267 129.24 21.0421 129.683 21.473C130.126 21.9039 130.348 22.4209 130.348 23.0241C130.348 23.4304 130.243 23.8028 130.034 24.1413C129.831 24.4737 129.563 24.7415 129.23 24.9446C128.898 25.1416 128.532 25.2401 128.132 25.2401Z" fill="white"/>
<path d="M0 3C0 1.34315 1.34315 0 3 0H3.96428C5.62114 0 6.96429 1.34315 6.96429 3V22C6.96429 23.6569 5.62114 25 3.96429 25H3C1.34315 25 0 23.6569 0 22V3Z" fill="white"/>
<path d="M2.7857 0H6.96428L6.96429 22H2.7857V0Z" fill="white"/>
<path d="M0 3H4L3.96429 25H2H0V3Z" fill="white"/>
<path d="M9.10715 0.267857C9.10715 0.119924 9.22708 0 9.37501 0C9.52295 0 9.64287 0.119924 9.64287 0.267857V24.7321C9.64287 24.8801 9.52295 25 9.37501 25C9.22708 25 9.10715 24.8801 9.10715 24.7321V0.267857Z" fill="white"/>
<path d="M9.10715 0.535714H9.37501V25H9.10715V0.535714Z" fill="white"/>
<path d="M9.37501 0H9.64286V24.6429H9.375L9.37501 0Z" fill="white"/>
<path d="M7.5 0.446428C7.5 0.199873 7.69987 0 7.94643 0C8.19298 0 8.39285 0.199873 8.39285 0.446429V24.5536C8.39285 24.8001 8.19298 25 7.94643 25C7.69987 25 7.5 24.8001 7.5 24.5536V0.446428Z" fill="white"/>
<path d="M7.5 0.535714H7.94643V25H7.5V0.535714Z" fill="white"/>
<path d="M7.94643 0H8.39287L8.39285 24.5536H7.94643V0Z" fill="white"/>
</svg>
