<svg width="72" height="14" viewBox="0 0 72 14" fill="none" xmlns="http://www.w3.org/2000/svg">
<path d="M2.47159 1.36364V13H0.0113636V1.36364H2.47159ZM8.87347 13.1705C7.97953 13.1705 7.21059 12.9811 6.56665 12.6023C5.9265 12.2197 5.43407 11.6894 5.08938 11.0114C4.74847 10.3333 4.57801 9.55303 4.57801 8.67045C4.57801 7.77652 4.75036 6.99242 5.09506 6.31818C5.44354 5.64015 5.93786 5.11174 6.57801 4.73295C7.21816 4.35038 7.97953 4.15909 8.8621 4.15909C9.62347 4.15909 10.2901 4.29735 10.8621 4.57386C11.4341 4.85038 11.8867 5.23864 12.2201 5.73864C12.5534 6.23864 12.7371 6.82576 12.7712 7.5H10.4871C10.4227 7.06439 10.2523 6.71401 9.97574 6.44886C9.70301 6.17992 9.34506 6.04545 8.90188 6.04545C8.52688 6.04545 8.19922 6.14773 7.91892 6.35227C7.64241 6.55303 7.4265 6.84659 7.27119 7.23295C7.11589 7.61932 7.03824 8.08712 7.03824 8.63636C7.03824 9.19318 7.114 9.66667 7.26551 10.0568C7.42081 10.447 7.63862 10.7443 7.91892 10.9489C8.19922 11.1534 8.52688 11.2557 8.90188 11.2557C9.17839 11.2557 9.4265 11.1989 9.64619 11.0852C9.86968 10.9716 10.0534 10.8068 10.1973 10.5909C10.3451 10.3712 10.4416 10.108 10.4871 9.80114H12.7712C12.7333 10.4678 12.5515 11.0549 12.2257 11.5625C11.9038 12.0663 11.4587 12.4602 10.8905 12.7443C10.3223 13.0284 9.64998 13.1705 8.87347 13.1705ZM17.2214 7.95455V13H14.8009V1.36364H17.1532V5.8125H17.2555C17.4524 5.29735 17.7706 4.89394 18.21 4.60227C18.6494 4.30682 19.2005 4.15909 19.8634 4.15909C20.4695 4.15909 20.9979 4.29167 21.4486 4.55682C21.9032 4.81818 22.2555 5.19508 22.5055 5.6875C22.7592 6.17614 22.8842 6.76136 22.8805 7.44318V13H20.46V7.875C20.4638 7.33712 20.3274 6.91856 20.0509 6.61932C19.7782 6.32008 19.3956 6.17045 18.9032 6.17045C18.5736 6.17045 18.282 6.24053 18.0282 6.38068C17.7782 6.52083 17.5812 6.72538 17.4373 6.99432C17.2971 7.25947 17.2252 7.57955 17.2214 7.95455ZM25.2653 13V4.27273H27.6857V13H25.2653ZM26.4812 3.14773C26.1213 3.14773 25.8126 3.02841 25.5551 2.78977C25.3013 2.54735 25.1744 2.25758 25.1744 1.92045C25.1744 1.58712 25.3013 1.30114 25.5551 1.0625C25.8126 0.820075 26.1213 0.698863 26.4812 0.698863C26.841 0.698863 27.1479 0.820075 27.4016 1.0625C27.6592 1.30114 27.788 1.58712 27.788 1.92045C27.788 2.25758 27.6592 2.54735 27.4016 2.78977C27.1479 3.02841 26.841 3.14773 26.4812 3.14773ZM37.366 6.76136L35.1501 6.89773C35.1122 6.70833 35.0308 6.53788 34.9058 6.38636C34.7808 6.23106 34.616 6.10795 34.4115 6.01705C34.2107 5.92235 33.9702 5.875 33.6899 5.875C33.3149 5.875 32.9986 5.95455 32.741 6.11364C32.4834 6.26894 32.3547 6.47727 32.3547 6.73864C32.3547 6.94697 32.438 7.12311 32.6047 7.26705C32.7713 7.41098 33.0573 7.52652 33.4626 7.61364L35.0422 7.93182C35.8906 8.10606 36.5232 8.38636 36.9399 8.77273C37.3566 9.15909 37.5649 9.66667 37.5649 10.2955C37.5649 10.8674 37.3963 11.3693 37.0592 11.8011C36.7259 12.233 36.2675 12.5701 35.6842 12.8125C35.1047 13.0511 34.4361 13.1705 33.6785 13.1705C32.5232 13.1705 31.6028 12.9299 30.9172 12.4489C30.2353 11.964 29.8357 11.3049 29.7183 10.4716L32.099 10.3466C32.1709 10.6989 32.3452 10.9678 32.6217 11.1534C32.8982 11.3352 33.2524 11.4261 33.6842 11.4261C34.1084 11.4261 34.4494 11.3447 34.7069 11.1818C34.9683 11.0152 35.1009 10.8011 35.1047 10.5398C35.1009 10.3201 35.0081 10.1402 34.8263 10C34.6444 9.85606 34.3641 9.74621 33.9853 9.67045L32.474 9.36932C31.6217 9.19886 30.9872 8.90341 30.5706 8.48295C30.1577 8.0625 29.9513 7.52652 29.9513 6.875C29.9513 6.31439 30.1028 5.83144 30.4058 5.42614C30.7126 5.02083 31.1425 4.70833 31.6956 4.48864C32.2524 4.26894 32.9039 4.15909 33.6501 4.15909C34.7524 4.15909 35.6198 4.39205 36.2524 4.85795C36.8888 5.32386 37.26 5.95833 37.366 6.76136ZM43.7522 13V4.27273H46.1726V13H43.7522ZM44.9681 3.14773C44.6082 3.14773 44.2995 3.02841 44.0419 2.78977C43.7881 2.54735 43.6613 2.25758 43.6613 1.92045C43.6613 1.58712 43.7881 1.30114 44.0419 1.0625C44.2995 0.820075 44.6082 0.698863 44.9681 0.698863C45.3279 0.698863 45.6347 0.820075 45.8885 1.0625C46.1461 1.30114 46.2749 1.58712 46.2749 1.92045C46.2749 2.25758 46.1461 2.54735 45.8885 2.78977C45.6347 3.02841 45.3279 3.14773 44.9681 3.14773ZM51.012 7.95455V13H48.5915V4.27273H50.8984V5.8125H51.0006C51.1938 5.30492 51.5177 4.90341 51.9722 4.60795C52.4268 4.30871 52.9779 4.15909 53.6256 4.15909C54.2317 4.15909 54.7601 4.29167 55.2109 4.55682C55.6616 4.82197 56.012 5.20076 56.262 5.69318C56.512 6.18182 56.637 6.76515 56.637 7.44318V13H54.2165V7.875C54.2203 7.34091 54.084 6.92424 53.8074 6.625C53.5309 6.32197 53.1502 6.17045 52.6654 6.17045C52.3396 6.17045 52.0518 6.24053 51.8018 6.38068C51.5555 6.52083 51.3624 6.72538 51.2222 6.99432C51.0859 7.25947 51.0158 7.57955 51.012 7.95455ZM62.9678 13.1705C62.0739 13.1705 61.305 12.9811 60.661 12.6023C60.0209 12.2197 59.5284 11.6894 59.1838 11.0114C58.8428 10.3333 58.6724 9.55303 58.6724 8.67045C58.6724 7.77652 58.8447 6.99242 59.1894 6.31818C59.5379 5.64015 60.0322 5.11174 60.6724 4.73295C61.3125 4.35038 62.0739 4.15909 62.9565 4.15909C63.7178 4.15909 64.3845 4.29735 64.9565 4.57386C65.5284 4.85038 65.9811 5.23864 66.3144 5.73864C66.6478 6.23864 66.8315 6.82576 66.8656 7.5H64.5815C64.5171 7.06439 64.3466 6.71401 64.0701 6.44886C63.7974 6.17992 63.4394 6.04545 62.9963 6.04545C62.6213 6.04545 62.2936 6.14773 62.0133 6.35227C61.7368 6.55303 61.5209 6.84659 61.3656 7.23295C61.2103 7.61932 61.1326 8.08712 61.1326 8.63636C61.1326 9.19318 61.2084 9.66667 61.3599 10.0568C61.5152 10.447 61.733 10.7443 62.0133 10.9489C62.2936 11.1534 62.6213 11.2557 62.9963 11.2557C63.2728 11.2557 63.5209 11.1989 63.7406 11.0852C63.9641 10.9716 64.1478 10.8068 64.2917 10.5909C64.4394 10.3712 64.536 10.108 64.5815 9.80114H66.8656C66.8277 10.4678 66.6459 11.0549 66.3201 11.5625C65.9981 12.0663 65.5531 12.4602 64.9849 12.7443C64.4167 13.0284 63.7444 13.1705 62.9678 13.1705ZM70.3101 13.1477C69.9351 13.1477 69.6131 13.0152 69.3441 12.75C69.079 12.4811 68.9464 12.1591 68.9464 11.7841C68.9464 11.4129 69.079 11.0947 69.3441 10.8295C69.6131 10.5644 69.9351 10.4318 70.3101 10.4318C70.6737 10.4318 70.9919 10.5644 71.2646 10.8295C71.5373 11.0947 71.6737 11.4129 71.6737 11.7841C71.6737 12.0341 71.6093 12.2633 71.4805 12.4716C71.3555 12.6761 71.1907 12.8409 70.9862 12.9659C70.7816 13.0871 70.5563 13.1477 70.3101 13.1477Z" fill="white"/>
</svg>
